Pathala Bhairavi (1951) DvdRip



Description

General
Complete name : Pathala Bhairavi (1951)DvdRip
Format : AVI
File size : 896 MiB
Duration : 3h 10mn
Overall bit rate : 659 Kbps

Video
Format : MPEG-4 Visual
Format settings, Matrix : Default (H.263)
Codec ID : XVID
Bit rate : 600 Kbps
Width : 672 pixels
Height : 416 pixels
Display aspect ratio : 1.615
Frame rate : 23.976 fps
Bit depth : 8 bits
Compression mode : Lossy
Bits/(Pixel*Frame) : 0.089
Stream size : 815 MiB (91%)
Writing library : XviD 1.2.1 (UTC 2008-12-04)

Audio
Format : MPEG Audio
Format version : Version 2
Mode : Joint stereo
Mode extension : MS Stereo
Codec ID/Hint : MP3
Duration : 3h 10mn
Bit rate mode : Constant
Bit rate : 56.0 Kbps
Channel(s) : 2 channels
Sampling rate : 24.0 KHz
Compression mode : Lossy
Stream size : 76.1 MiB (8%)



for screenshots see here
 
http://teluguppls.blogspot.com/2011/04/pathala-bhairavi-1951-telugu-movie.html